<svg width="21" height="24" viewBox="0 0 21 24" fill="none" xmlns="http://www.w3.org/2000/svg">
<path d="M8.50752 14.9983C8.63464 14.9983 8.76177 14.9491 8.85467 14.8508L9.84721 13.8375C10.0428 13.9309 10.2628 13.985 10.4926 13.985C11.3189 13.985 11.9937 13.3112 11.9937 12.4799C11.9937 12.2536 11.9399 12.0421 11.8519 11.8552C11.8519 11.8552 11.8568 11.8552 11.8568 11.8502L13.0058 10.6746V10.9796C13.0058 11.2501 13.2258 11.4715 13.4947 11.4715C13.7636 11.4715 13.9837 11.2501 13.9837 10.9796V9.47932C13.9837 9.20878 13.7685 8.98743 13.4947 8.98743H11.9937C11.7247 8.98743 11.5047 9.20878 11.5047 9.47932C11.5047 9.74986 11.7247 9.97121 11.9937 9.97121H12.3213L11.1625 11.1616C11.1625 11.1616 11.1625 11.1616 11.1576 11.1665C10.9571 11.0681 10.7322 11.014 10.4975 11.014C9.6712 11.014 8.99646 11.6732 8.99646 12.4799C8.99646 12.7209 9.05513 12.9472 9.15292 13.1488L8.16037 14.1621C7.96968 14.354 7.97457 14.6688 8.16526 14.8557C8.25816 14.9492 8.38528 14.9983 8.50752 14.9983ZM10.4975 11.9979C10.7811 11.9979 11.0207 12.2192 11.0207 12.4799C11.0207 12.775 10.7909 13.0013 10.4975 13.0013C10.2041 13.0013 9.97434 12.7701 9.97434 12.4799C9.97434 12.2192 10.2139 11.9979 10.4975 11.9979Z" fill="#A5A6B3"/>
<path d="M12.8591 3.25694C13.1721 2.30759 12.8836 1.23526 12.0866 0.590886C11.2016 -0.196141 9.83749 -0.19614 8.91339 0.585968C8.11641 1.23035 7.82305 2.30759 8.13597 3.25694C3.48126 4.32926 0 8.51034 0 13.4932C0 19.2877 4.7085 24 10.4976 24C16.2866 24 21 19.2877 21 13.4932C21 8.51029 17.5139 4.32921 12.8591 3.25694ZM9.52945 1.3484C9.53434 1.34348 9.53923 1.34348 9.53923 1.33856C10.1015 0.861426 10.9229 0.856507 11.4461 1.32872C11.451 1.33364 11.4608 1.33856 11.4657 1.3484C11.979 1.76159 12.1404 2.47975 11.8764 3.07494C11.4265 3.01591 10.962 2.9864 10.4976 2.9864C10.0331 2.9864 9.56857 3.01591 9.11874 3.07494C8.84983 2.47975 9.01118 1.76154 9.52945 1.3484ZM10.4976 23.0162C6.66915 23.0162 3.35902 20.7436 1.8482 17.4726H4.45914H16.5311H19.142C17.6361 20.7436 14.326 23.0162 10.4976 23.0162ZM6.27311 8.51029C8.7227 6.47878 12.2773 6.47878 14.7269 8.51029C17.0591 10.4434 17.6801 13.7588 16.2475 16.4888H4.74761C3.31991 13.7588 3.93597 10.4434 6.27311 8.51029ZM19.499 16.4937H17.3329C17.9246 15.1459 18.125 13.6506 17.8854 12.1995C17.6019 10.4533 16.6973 8.87429 15.3478 7.75278C12.5364 5.42613 8.46356 5.42613 5.65215 7.75278C4.30268 8.87429 3.39814 10.4533 3.11455 12.1995C2.87497 13.6506 3.07544 15.1459 3.66705 16.4937H1.45704C1.14412 15.5493 0.972992 14.5458 0.972992 13.4981C0.977881 8.24467 5.24633 3.97013 10.4976 3.97013C15.7488 3.97013 20.0221 8.23975 20.0221 13.4932C20.0221 14.5409 19.851 15.5493 19.5381 16.4937C19.5234 16.4937 19.5136 16.4937 19.499 16.4937Z" fill="#A5A6B3"/>
</svg>
