<?xml version="1.0" encoding="UTF-8"?>
<!DOCTYPE svg PUBLIC "-//W3C//DTD SVG 1.1//EN" "http://www.w3.org/Graphics/SVG/1.1/DTD/svg11.dtd">
<svg xmlns="http://www.w3.org/2000/svg" version="1.1" width="512px" height="512px" style="shape-rendering:geometricPrecision; text-rendering:geometricPrecision; image-rendering:optimizeQuality; fill-rule:evenodd; clip-rule:evenodd" xmlns:xlink="http://www.w3.org/1999/xlink">
<g><path style="opacity:0.993" fill="#9f57f1" d="M 248.5,74.5 C 248.062,74.4346 247.728,74.6012 247.5,75C 259.728,87.3959 272.062,99.5626 284.5,111.5C 270.167,111.5 255.833,111.5 241.5,111.5C 231.14,100.473 220.473,89.8063 209.5,79.5C 190.53,65.5208 170.53,52.0208 149.5,39C 143.888,34.8244 142.055,29.3244 144,22.5C 147.655,15.9298 153.155,13.7632 160.5,16C 190.071,35.2752 219.404,54.7752 248.5,74.5 Z"/></g>
<g><path style="opacity:0.972" fill="#c655f8" d="M 345.5,49.5 C 339.833,43.1667 333.833,37.1667 327.5,31.5C 334.756,25.8611 342.422,20.6944 350.5,16C 364.725,14.5592 369.892,20.7259 366,34.5C 359.569,40.1043 352.736,45.1043 345.5,49.5 Z"/></g>
<g><path style="opacity:0.98" fill="#ba57f6" d="M 327.5,31.5 C 333.833,37.1667 339.833,43.1667 345.5,49.5C 334.641,56.7604 323.641,63.7604 312.5,70.5C 306.833,64.5 301.167,58.5 295.5,52.5C 305.816,45.0057 316.483,38.0057 327.5,31.5 Z"/></g>
<g><path style="opacity:0.994" fill="#b256f4" d="M 295.5,52.5 C 301.167,58.5 306.833,64.5 312.5,70.5C 308.742,73.5571 304.742,76.3904 300.5,79C 308.159,79.4997 315.826,79.6664 323.5,79.5C 333.833,90.1667 344.167,100.833 354.5,111.5C 343.833,111.5 333.167,111.5 322.5,111.5C 307.5,95.8333 292.167,80.5 276.5,65.5C 282.536,60.8088 288.869,56.4755 295.5,52.5 Z"/></g>
<g><path style="opacity:0.997" fill="#aa56f3" d="M 276.5,65.5 C 292.167,80.5 307.5,95.8333 322.5,111.5C 309.833,111.5 297.167,111.5 284.5,111.5C 272.062,99.5626 259.728,87.3959 247.5,75C 247.728,74.6012 248.062,74.4346 248.5,74.5C 250.816,75.8056 253.15,77.1389 255.5,78.5C 262.388,73.8941 269.388,69.5607 276.5,65.5 Z"/></g>
<g><path style="opacity:1" fill="#8259ec" d="M 65.5,79.5 C 84.8333,79.5 104.167,79.5 123.5,79.5C 134.473,89.8063 145.14,100.473 155.5,111.5C 135.833,111.5 116.167,111.5 96.5,111.5C 86.1667,100.833 75.8333,90.1667 65.5,79.5 Z"/></g>
<g><path style="opacity:1" fill="#9058ef" d="M 123.5,79.5 C 141.833,79.5 160.167,79.5 178.5,79.5C 188.833,90.1667 199.167,100.833 209.5,111.5C 191.5,111.5 173.5,111.5 155.5,111.5C 145.14,100.473 134.473,89.8063 123.5,79.5 Z"/></g>
<g><path style="opacity:1" fill="#9958f0" d="M 178.5,79.5 C 188.833,79.5 199.167,79.5 209.5,79.5C 220.473,89.8063 231.14,100.473 241.5,111.5C 230.833,111.5 220.167,111.5 209.5,111.5C 199.167,100.833 188.833,90.1667 178.5,79.5 Z"/></g>
<g><path style="opacity:1" fill="#bc57f6" d="M 323.5,79.5 C 341.5,79.5 359.5,79.5 377.5,79.5C 387.833,90.1667 398.167,100.833 408.5,111.5C 390.5,111.5 372.5,111.5 354.5,111.5C 344.167,100.833 333.833,90.1667 323.5,79.5 Z"/></g>
<g><path style="opacity:1" fill="#c756f8" d="M 377.5,79.5 C 393.167,79.5 408.833,79.5 424.5,79.5C 442.5,98.1667 460.833,116.5 479.5,134.5C 479.5,149.833 479.5,165.167 479.5,180.5C 468.833,170.167 458.167,159.833 447.5,149.5C 447.5,136.833 447.5,124.167 447.5,111.5C 434.5,111.5 421.5,111.5 408.5,111.5C 398.167,100.833 387.833,90.1667 377.5,79.5 Z"/></g>
<g><path style="opacity:1" fill="#d055fa" d="M 424.5,79.5 C 439.504,79.3334 454.504,79.5001 469.5,80C 474,81.8333 477.167,85 479,89.5C 479.5,104.496 479.667,119.496 479.5,134.5C 460.833,116.5 442.5,98.1667 424.5,79.5 Z"/></g>
<g><path style="opacity:0.993" fill="#7559ea" d="M 65.5,79.5 C 75.8333,90.1667 86.1667,100.833 96.5,111.5C 85.5,111.5 74.5,111.5 63.5,111.5C 63.5,118.167 63.5,124.833 63.5,131.5C 52.8333,121.167 42.1667,110.833 31.5,100.5C 29.6544,91.026 32.9877,84.1926 41.5,80C 49.4931,79.5003 57.4931,79.3336 65.5,79.5 Z"/></g>
<g><path style="opacity:1" fill="#6959e8" d="M 31.5,100.5 C 42.1667,110.833 52.8333,121.167 63.5,131.5C 63.5,150.833 63.5,170.167 63.5,189.5C 52.8333,179.167 42.1667,168.833 31.5,158.5C 31.5,139.167 31.5,119.833 31.5,100.5 Z"/></g>
<g><path style="opacity:0.994" fill="#9858f0" d="M 319.5,188.5 C 340.188,207.188 359.854,226.854 378.5,247.5C 375.97,254.033 371.636,259.033 365.5,262.5C 361.06,259.237 356.727,255.737 352.5,252C 316.605,215.938 280.605,180.105 244.5,144.5C 279.769,140.656 302.102,155.989 311.5,190.5C 312,190.833 312.5,191.167 313,191.5C 314.978,190.094 317.145,189.094 319.5,188.5 Z"/></g>
<g><path style="opacity:0.997" fill="#9257ef" d="M 244.5,144.5 C 280.605,180.105 316.605,215.938 352.5,252C 356.727,255.737 361.06,259.237 365.5,262.5C 358.622,268.23 350.622,271.23 341.5,271.5C 342.263,270.732 343.263,270.232 344.5,270C 304.632,230.631 264.632,191.464 224.5,152.5C 230.418,148.216 237.085,145.549 244.5,144.5 Z"/></g>
<g><path style="opacity:0.999" fill="#8c58ee" d="M 224.5,152.5 C 264.632,191.464 304.632,230.631 344.5,270C 343.263,270.232 342.263,270.732 341.5,271.5C 333.833,271.5 326.167,271.5 318.5,271.5C 283.2,236.368 247.7,201.368 212,166.5C 211.536,165.906 211.369,165.239 211.5,164.5C 215.207,159.792 219.54,155.792 224.5,152.5 Z"/></g>
<g><path style="opacity:0.998" fill="#8659ed" d="M 211.5,164.5 C 211.369,165.239 211.536,165.906 212,166.5C 247.7,201.368 283.2,236.368 318.5,271.5C 309.167,271.5 299.833,271.5 290.5,271.5C 261.34,241.507 231.673,212.007 201.5,183C 202.056,182.617 202.389,182.117 202.5,181.5C 204.216,175.065 207.216,169.398 211.5,164.5 Z"/></g>
<g><path style="opacity:0.996" fill="#7f59ec" d="M 202.5,181.5 C 202.389,182.117 202.056,182.617 201.5,183C 231.673,212.007 261.34,241.507 290.5,271.5C 280.167,271.5 269.833,271.5 259.5,271.5C 228.034,240.201 196.367,209.034 164.5,178C 163.552,177.517 162.552,177.351 161.5,177.5C 162.609,176.71 163.942,176.21 165.5,176C 172.167,175.333 178.833,175.333 185.5,176C 191.188,177.848 196.855,179.682 202.5,181.5 Z"/></g>
<g><path style="opacity:1" fill="#ba57f6" d="M 447.5,149.5 C 458.167,159.833 468.833,170.167 479.5,180.5C 479.5,198.167 479.5,215.833 479.5,233.5C 468.833,223.167 458.167,212.833 447.5,202.5C 447.5,184.833 447.5,167.167 447.5,149.5 Z"/></g>
<g><path style="opacity:0.997" fill="#7958ea" d="M 161.5,177.5 C 162.552,177.351 163.552,177.517 164.5,178C 196.367,209.034 228.034,240.201 259.5,271.5C 250.5,271.5 241.5,271.5 232.5,271.5C 203.5,242.833 174.5,214.167 145.5,185.5C 149.968,181.266 155.301,178.599 161.5,177.5 Z"/></g>
<g><path style="opacity:0.992" fill="#a058f1" d="M 378.5,247.5 C 359.854,226.854 340.188,207.188 319.5,188.5C 322.715,186.144 326.381,184.644 330.5,184C 357.791,180.88 375.291,192.38 383,218.5C 383.667,224.5 383.667,230.5 383,236.5C 382.356,240.619 380.856,244.285 378.5,247.5 Z"/></g>
<g><path style="opacity:1" fill="#5c5ae5" d="M 31.5,158.5 C 42.1667,168.833 52.8333,179.167 63.5,189.5C 63.5,207.167 63.5,224.833 63.5,242.5C 53.1349,232.134 42.4682,222.134 31.5,212.5C 31.5,194.5 31.5,176.5 31.5,158.5 Z"/></g>
<g><path style="opacity:0.996" fill="#7358e9" d="M 145.5,185.5 C 174.5,214.167 203.5,242.833 232.5,271.5C 223.167,271.5 213.833,271.5 204.5,271.5C 181.507,247.673 158.007,224.34 134,201.5C 133.536,200.906 133.369,200.239 133.5,199.5C 136.406,193.925 140.406,189.258 145.5,185.5 Z"/></g>
<g><path style="opacity:0.995" fill="#6c59e8" d="M 133.5,199.5 C 133.369,200.239 133.536,200.906 134,201.5C 158.007,224.34 181.507,247.673 204.5,271.5C 190.108,271.93 175.774,271.43 161.5,270C 133.734,258.969 122.9,238.802 129,209.5C 129.844,205.771 131.344,202.437 133.5,199.5 Z"/></g>
<g><path style="opacity:1" fill="#b257f4" d="M 447.5,202.5 C 458.167,212.833 468.833,223.167 479.5,233.5C 479.5,243.833 479.5,254.167 479.5,264.5C 469.135,254.134 458.468,244.134 447.5,234.5C 447.5,223.833 447.5,213.167 447.5,202.5 Z"/></g>
<g><path style="opacity:1" fill="#505ae3" d="M 31.5,212.5 C 42.4682,222.134 53.1349,232.134 63.5,242.5C 63.5,261.833 63.5,281.167 63.5,300.5C 53.1349,290.134 42.4682,280.134 31.5,270.5C 31.5,251.167 31.5,231.833 31.5,212.5 Z"/></g>
<g><path style="opacity:1" fill="#a957f3" d="M 447.5,234.5 C 458.468,244.134 469.135,254.134 479.5,264.5C 479.5,277.167 479.5,289.833 479.5,302.5C 468.532,292.866 457.865,282.866 447.5,272.5C 447.5,259.833 447.5,247.167 447.5,234.5 Z"/></g>
<g><path style="opacity:1" fill="#a058f1" d="M 447.5,272.5 C 457.865,282.866 468.532,292.866 479.5,302.5C 479.5,316.5 479.5,330.5 479.5,344.5C 468.532,334.866 457.865,324.866 447.5,314.5C 447.5,300.5 447.5,286.5 447.5,272.5 Z"/></g>
<g><path style="opacity:0.98" fill="#6159e6" d="M 188.5,295.5 C 201.32,294.153 206.82,299.819 205,312.5C 200.667,321.167 196.333,329.833 192,338.5C 187.86,343.211 182.694,344.711 176.5,343C 169.93,339.345 167.763,333.845 170,326.5C 174.333,317.833 178.667,309.167 183,300.5C 184.73,298.598 186.563,296.931 188.5,295.5 Z"/></g>
<g><path style="opacity:0.977" fill="#6f59e9" d="M 252.5,295.5 C 265.32,294.153 270.82,299.819 269,312.5C 264.667,321.167 260.333,329.833 256,338.5C 251.86,343.211 246.694,344.711 240.5,343C 233.93,339.345 231.763,333.845 234,326.5C 238.333,317.833 242.667,309.167 247,300.5C 248.73,298.598 250.563,296.931 252.5,295.5 Z"/></g>
<g><path style="opacity:1" fill="#9858f0" d="M 447.5,314.5 C 457.865,324.866 468.532,334.866 479.5,344.5C 479.5,354.833 479.5,365.167 479.5,375.5C 478.761,375.631 478.094,375.464 477.5,375C 467.632,364.964 457.632,355.131 447.5,345.5C 447.5,335.167 447.5,324.833 447.5,314.5 Z"/></g>
<g><path style="opacity:0.973" fill="#7c59eb" d="M 316.5,295.5 C 329.32,294.153 334.82,299.819 333,312.5C 328.667,321.167 324.333,329.833 320,338.5C 315.86,343.211 310.694,344.711 304.5,343C 297.93,339.345 295.763,333.845 298,326.5C 302.333,317.833 306.667,309.167 311,300.5C 312.73,298.598 314.563,296.931 316.5,295.5 Z"/></g>
<g><path style="opacity:1" fill="#355bde" d="M 31.5,350.5 C 48.8031,366.136 65.4698,382.469 81.5,399.5C 68.1625,399.667 54.8292,399.5 41.5,399C 37,397.167 33.8333,394 32,389.5C 31.5001,376.504 31.3334,363.504 31.5,350.5 Z"/></g>
<g><path style="opacity:1" fill="#415be1" d="M 31.5,270.5 C 42.4682,280.134 53.1349,290.134 63.5,300.5C 63.5,322.833 63.5,345.167 63.5,367.5C 86.1667,367.5 108.833,367.5 131.5,367.5C 141.833,378.167 152.167,388.833 162.5,399.5C 135.5,399.5 108.5,399.5 81.5,399.5C 65.4698,382.469 48.8031,366.136 31.5,350.5C 31.5,323.833 31.5,297.167 31.5,270.5 Z"/></g>
<g><path style="opacity:1" fill="#4e5be3" d="M 131.5,367.5 C 142.167,367.5 152.833,367.5 163.5,367.5C 173.833,378.167 184.167,388.833 194.5,399.5C 183.833,399.5 173.167,399.5 162.5,399.5C 152.167,388.833 141.833,378.167 131.5,367.5 Z"/></g>
<g><path style="opacity:1" fill="#585ae5" d="M 163.5,367.5 C 181.5,367.5 199.5,367.5 217.5,367.5C 227.833,378.167 238.167,388.833 248.5,399.5C 230.5,399.5 212.5,399.5 194.5,399.5C 184.167,388.833 173.833,378.167 163.5,367.5 Z"/></g>
<g><path style="opacity:1" fill="#655ae7" d="M 217.5,367.5 C 237.167,367.5 256.833,367.5 276.5,367.5C 286.833,378.167 297.167,388.833 307.5,399.5C 287.833,399.5 268.167,399.5 248.5,399.5C 238.167,388.833 227.833,378.167 217.5,367.5 Z"/></g>
<g><path style="opacity:1" fill="#7159e9" d="M 276.5,367.5 C 294.5,367.5 312.5,367.5 330.5,367.5C 340.86,378.527 351.527,389.194 362.5,399.5C 344.167,399.5 325.833,399.5 307.5,399.5C 297.167,388.833 286.833,378.167 276.5,367.5 Z"/></g>
<g><path style="opacity:1" fill="#7f59ec" d="M 330.5,367.5 C 359.167,367.5 387.833,367.5 416.5,367.5C 426.86,378.527 437.527,389.194 448.5,399.5C 419.833,399.5 391.167,399.5 362.5,399.5C 351.527,389.194 340.86,378.527 330.5,367.5 Z"/></g>
<g><path style="opacity:0.997" fill="#8e58ee" d="M 447.5,345.5 C 457.632,355.131 467.632,364.964 477.5,375C 478.094,375.464 478.761,375.631 479.5,375.5C 482.23,386.118 478.896,393.952 469.5,399C 462.508,399.5 455.508,399.666 448.5,399.5C 437.527,389.194 426.86,378.527 416.5,367.5C 426.833,367.5 437.167,367.5 447.5,367.5C 447.5,360.167 447.5,352.833 447.5,345.5 Z"/></g>
<g><path style="opacity:0.979" fill="#7459ea" d="M 377.5,423.5 C 389.851,423.168 402.185,423.501 414.5,424.5C 420,435.5 425.5,446.5 431,457.5C 433.167,474 426,481.167 409.5,479C 406.438,477.939 403.938,476.106 402,473.5C 393.55,456.934 385.383,440.268 377.5,423.5 Z"/></g>
<g><path style="opacity:0.972" fill="#305bde" d="M 96.5,423.5 C 108.851,423.168 121.185,423.501 133.5,424.5C 125.333,440.833 117.167,457.167 109,473.5C 102.055,480.069 94.2221,481.236 85.5,477C 79.8327,471.681 77.9993,465.181 80,457.5C 85.7836,446.267 91.2836,434.934 96.5,423.5 Z"/></g>
</svg>
