<svg width="24" height="24" viewBox="0 0 24 24" fill="none" xmlns="http://www.w3.org/2000/svg">
<rect width="24" height="24" fill="#E5E5E5"/>
<g id="Weather">
<path d="M-116 -132C-116 -140.837 -108.837 -148 -100 -148H60C68.8366 -148 76 -140.837 76 -132V221C76 229.837 68.8365 237 60 237H-100C-108.837 237 -116 229.837 -116 221V-132Z" fill="white"/>
<g id="Sun_duotone">
<circle id="Ellipse 108" cx="12" cy="12" r="3.4" fill="#7E869E" fill-opacity="0.25" stroke="#222222" stroke-width="1.2"/>
<path id="Vector 166" d="M12 5V3" stroke="#222222" stroke-width="1.2" stroke-linecap="round"/>
<path id="Vector 167" d="M12 21V19" stroke="#222222" stroke-width="1.2" stroke-linecap="round"/>
<path id="Vector 166_2" d="M16.9498 7.05026L18.364 5.63605" stroke="#222222" stroke-width="1.2" stroke-linecap="round"/>
<path id="Vector 167_2" d="M5.63608 18.364L7.05029 16.9497" stroke="#222222" stroke-width="1.2" stroke-linecap="round"/>
<path id="Vector 166_3" d="M19 12L21 12" stroke="#222222" stroke-width="1.2" stroke-linecap="round"/>
<path id="Vector 167_3" d="M3 12L5 12" stroke="#222222" stroke-width="1.2" stroke-linecap="round"/>
<path id="Vector 166_4" d="M16.9498 16.9497L18.364 18.364" stroke="#222222" stroke-width="1.2" stroke-linecap="round"/>
<path id="Vector 167_4" d="M5.63608 5.63605L7.05029 7.05026" stroke="#222222" stroke-width="1.2" stroke-linecap="round"/>
</g>
</g>
</svg>
